# xmcd
#
# Track frame offsets:
#       150
#       19539
#       43534
#       58644
#       78623
#       98780
#       115398
#       132795
#       148610
#       171583
#       198456
#       229528
#       254253
#
# Disc length: 3855 seconds
#
# Revision: 1
# Processed by: cddbd v1.5.1PL0 Copyright (c) Steve Scherf et al.
# Submitted via: WaveLab 4.01
#
DISCID=b00f0d0d
DTITLE=Deadred To Bed - Velke Usi Maju Strach...
DYEAR=2001
DGENRE=
TTITLE0=Handbag - j fun
TTITLE1=Ettella Diamant - Snorlax
TTITLE2=Puding Pani Elvisovej - Pink Puding Pong
TTITLE3=Nylon Union - Such B Halo S
TTITLE4=Frogski Pop - Tengo Poco Tiempo
TTITLE5=Panda Filters - Bathroom
TTITLE6=Veneer - I Learned To Fly
TTITLE7=Best Before - Our Child
TTITLE8=Aleks Svaensson - The Art Of Recycling
TTITLE9=Hanbag - Unfair
TTITLE10=Ear Drum Kru - Rockers For The Future
TTITLE11=Abuse - Sunchasers
TTITLE12=Clairvoyance - Rozpravka
EXTD=
EXTT0=
EXTT1=
EXTT2=
EXTT3=
EXTT4=
EXTT5=
EXTT6=
EXTT7=
EXTT8=
EXTT9=
EXTT10=
EXTT11=
EXTT12=
PLAYORDER=
